<svg version="1.1" id="Layer_1" xmlns="http://www.w3.org/2000/svg" xmlns:xlink="http://www.w3.org/1999/xlink" x="0px" y="0px"
	 width="100%" viewBox="0 0 512 512" enable-background="new 0 0 512 512" xml:space="preserve">
<path fill="#FFFFFF" opacity="1.000000" stroke="none" 
	d="
M235.000000,513.000000 
	C157.033905,513.000000 79.067802,513.000000 1.050853,513.000000 
	C1.050853,342.441437 1.050853,171.882828 1.050853,1.000000 
	C85.021736,1.000000 169.043884,1.000000 253.460968,1.338134 
	C246.487213,9.145137 239.118546,16.614006 231.329956,24.050259 
	C218.618927,26.160069 206.134476,27.543276 194.079666,30.613379 
	C173.216583,35.926750 153.370316,44.103886 134.744385,55.036594 
	C109.303444,69.969467 86.810356,88.290115 68.048744,111.270760 
	C53.065704,129.623123 40.831596,149.469498 31.350067,171.141754 
	C20.536154,195.859467 13.904923,221.744019 12.266542,248.506149 
	C10.709379,273.941620 11.626452,299.456757 17.952427,324.484619 
	C24.073856,348.703247 32.684853,371.838287 45.986805,393.459839 
	C48.332123,397.241272 50.653164,400.665924 52.985992,404.446533 
	C62.159920,416.240021 70.711067,428.243073 80.640602,438.970184 
	C92.750336,452.052673 106.687691,463.274902 121.710571,472.972107 
	C127.908607,476.972870 134.503235,480.359192 141.085083,484.344055 
	C145.823334,486.812775 150.393997,488.962372 155.124146,491.440979 
	C159.290985,493.419617 163.258560,495.174866 167.312469,496.700745 
	C185.601379,503.584442 204.265610,508.996063 223.787888,511.081635 
	C227.550629,511.483643 231.263901,512.348572 235.000000,513.000000 
z"/>
<path fill="#FFFFFF" opacity="1.000000" stroke="none" 
	d="
M260.000000,1.000002 
	C344.296661,1.000000 428.593353,1.000000 512.945007,1.000000 
	C512.945007,171.555786 512.945007,342.111603 512.945007,513.000000 
	C435.311646,513.000000 357.622803,513.000000 279.651978,512.612000 
	C282.186188,512.139648 285.081024,512.448486 287.805023,511.903473 
	C300.288055,509.406036 312.880951,507.243958 325.137238,503.879089 
	C341.901733,499.276459 358.130951,493.055084 373.496124,484.042236 
	C394.894043,472.832184 413.626404,458.465546 430.630096,441.867371 
	C436.740906,435.902344 442.559601,429.513824 447.693085,422.701752 
	C454.900787,413.137207 461.344635,402.997040 468.426270,392.930908 
	C474.355225,381.128693 480.476379,369.710571 485.482269,357.822815 
	C494.854309,335.566620 500.232941,312.086029 501.680969,288.115448 
	C502.732758,270.704254 503.558594,253.011948 500.015625,235.621277 
	C497.402374,222.794083 495.389435,209.794540 491.903137,197.205734 
	C484.899231,171.915009 473.228363,148.771515 458.107300,127.268456 
	C443.945435,107.129387 427.548828,89.241028 408.176514,74.237503 
	C409.058655,73.815964 409.736237,73.662918 410.214996,73.268509 
	C411.843597,71.926758 413.402039,70.499832 414.987305,69.105438 
	C413.417480,67.422218 412.158722,64.960503 410.225098,64.187943 
	C400.878723,60.453701 394.487000,54.123863 390.823883,44.737347 
	C390.096497,42.873470 387.890106,41.586769 386.365723,40.033920 
	C384.913696,41.674767 383.291504,43.197395 382.049805,44.984390 
	C380.223541,47.612637 378.668793,50.429550 376.630615,53.088188 
	C356.619141,42.867149 336.428741,34.051311 314.713196,29.426640 
	C303.973053,27.139364 293.033508,25.788574 282.030396,23.701378 
	C275.944794,17.229633 270.013000,11.070578 263.941864,4.608768 
	C262.535004,3.204009 261.267487,2.102006 260.000000,1.000002 
z"/>
<path fill="#293D7C" opacity="1.000000" stroke="none" 
	d="
M373.133698,484.033813 
	C358.130951,493.055084 341.901733,499.276459 325.137238,503.879089 
	C312.880951,507.243958 300.288055,509.406036 287.805023,511.903473 
	C285.081024,512.448486 282.186188,512.139648 279.184998,512.612000 
	C264.645782,513.000000 250.291550,513.000000 235.468658,513.000000 
	C231.263901,512.348572 227.550629,511.483643 223.787888,511.081635 
	C204.265610,508.996063 185.601379,503.584442 167.312469,496.700745 
	C163.258560,495.174866 159.290985,493.419617 155.172714,491.050140 
	C158.334671,475.125122 166.534378,462.867798 177.915771,452.611847 
	C194.410889,437.747925 213.874359,432.812653 235.613831,435.726074 
	C239.396606,436.233063 243.199020,436.593353 247.325958,437.094238 
	C250.813141,439.520233 253.966721,441.873383 256.963165,444.109283 
	C257.483185,443.855957 257.654114,443.810394 257.776978,443.707397 
	C273.411255,430.608765 291.157227,424.317566 311.714050,426.657593 
	C312.678864,426.767426 314.389740,424.895966 314.909668,423.607025 
	C318.608490,414.436768 322.106750,405.185120 325.618317,395.940216 
	C326.229462,394.331360 326.601776,392.631744 327.424042,390.931366 
	C333.428284,385.173920 338.630646,378.887848 344.848633,373.857117 
	C360.291382,361.362885 378.110504,354.937317 398.012939,355.511688 
	C397.528473,356.187317 397.225433,356.654480 396.803436,356.821991 
	C386.682922,360.839478 375.827667,363.600403 366.563965,369.062531 
	C345.067200,381.737579 331.269623,400.799438 324.724884,425.051300 
	C323.827087,428.378113 324.729431,429.418640 327.630371,430.449738 
	C331.050323,431.665314 334.427704,433.202728 337.524872,435.090637 
	C354.773102,445.604523 366.288208,460.372742 370.725311,480.348969 
	C371.023071,481.689453 372.307922,482.810638 373.133698,484.033813 
z"/>
<path fill="#B80A2C" opacity="1.000000" stroke="none" 
	d="
M259.571533,1.000002 
	C261.267487,2.102006 262.535004,3.204009 263.793396,4.915300 
	C255.449066,15.160005 246.519913,24.351439 238.910995,34.529816 
	C225.905533,51.927055 217.251282,71.703987 209.523499,92.224304 
	C204.704239,92.324226 200.327866,92.279060 195.986160,91.842743 
	C204.085831,66.956337 216.199448,44.608238 231.749893,24.082878 
	C239.118546,16.614006 246.487213,9.145137 253.927948,1.338134 
	C255.714355,1.000000 257.428711,1.000000 259.571533,1.000002 
z"/>
<path fill="#1A2B63" opacity="1.000000" stroke="none" 
	d="
M231.329956,24.050259 
	C216.199448,44.608238 204.085831,66.956337 195.772308,92.123291 
	C186.628784,118.837929 181.657837,145.651917 179.459564,173.211685 
	C166.814941,180.760223 157.520172,191.240509 151.367599,203.976547 
	C136.316742,235.132446 136.064285,266.589417 151.397141,297.879578 
	C155.018036,305.268829 156.537201,305.703094 164.516174,301.772095 
	C174.555481,300.090271 184.228394,298.439545 194.097198,297.116455 
	C198.810135,309.683441 198.810181,309.684631 212.046509,309.122498 
	C212.370438,309.108765 212.689911,308.990204 213.447723,309.010925 
	C215.362793,309.163452 216.841629,309.225616 218.280975,309.736023 
	C218.235596,315.990753 218.356003,321.800995 218.184097,327.602509 
	C218.044937,332.298645 219.401352,335.733124 224.305084,337.158386 
	C219.073471,350.741913 214.062378,363.984375 208.777710,377.116791 
	C208.098221,378.805359 206.233459,380.471191 204.515030,381.207092 
	C197.818817,384.074493 192.101044,388.092468 187.410645,393.717590 
	C183.768616,389.689026 180.387390,385.840485 176.974823,381.646301 
	C174.736206,379.131653 172.689789,376.764130 170.296539,374.824585 
	C148.453201,357.122406 123.850876,351.152588 96.387589,357.754181 
	C74.946747,362.908112 58.422813,375.117432 45.962532,393.102997 
	C32.684853,371.838287 24.073856,348.703247 17.952427,324.484619 
	C11.626452,299.456757 10.709379,273.941620 12.266542,248.506149 
	C13.904923,221.744019 20.536154,195.859467 31.350067,171.141754 
	C40.831596,149.469498 53.065704,129.623123 68.048744,111.270760 
	C86.810356,88.290115 109.303444,69.969467 134.744385,55.036594 
	C153.370316,44.103886 173.216583,35.926750 194.079666,30.613379 
	C206.134476,27.543276 218.618927,26.160069 231.329956,24.050259 
M89.378853,147.589920 
	C87.443306,149.134399 85.507759,150.678879 83.572212,152.223343 
	C85.368172,153.749725 86.925941,155.879425 89.001076,156.698654 
	C98.282623,160.362854 103.845100,167.290436 107.560936,176.200821 
	C108.172958,177.668427 109.917358,179.592957 111.156158,179.605850 
	C112.368881,179.618500 113.753128,177.571320 114.775764,176.212723 
	C115.425110,175.350067 115.551605,174.093857 116.334183,172.462463 
	C119.879395,164.391876 126.220604,159.439957 134.138184,156.030533 
	C135.861389,155.288467 137.062195,153.333282 138.503601,151.936829 
	C137.071732,150.692703 135.839050,148.933212 134.174911,148.290024 
	C124.946075,144.723007 118.760910,138.323517 114.996147,129.246536 
	C114.285721,127.533653 112.328552,126.337868 110.946663,124.903481 
	C109.694435,126.297348 107.943291,127.486649 107.273834,129.119446 
	C103.847107,137.477188 98.450058,143.844131 89.378853,147.589920 
z"/>
<path fill="#445EA0" opacity="1.000000" stroke="none" 
	d="
M177.006165,381.991943 
	C180.387390,385.840485 183.768616,389.689026 187.477997,394.090332 
	C193.190826,404.793304 198.072388,415.122681 198.840286,426.852661 
	C168.581314,433.741821 149.943253,451.869263 142.928543,481.805115 
	C142.729309,482.655426 141.608551,483.289856 140.917480,484.024963 
	C134.503235,480.359192 127.908607,476.972870 121.710571,472.972107 
	C106.687691,463.274902 92.750336,452.052673 80.640602,438.970184 
	C70.711067,428.243073 62.159920,416.240021 53.021812,404.090698 
	C59.590416,393.108124 68.370079,385.062866 78.728081,378.914948 
	C101.424744,365.443512 125.642883,361.764771 150.910751,370.031433 
	C159.946442,372.987579 168.326736,377.946899 177.006165,381.991943 
z"/>
<path fill="#1B2C64" opacity="1.000000" stroke="none" 
	d="
M141.085083,484.344055 
	C141.608551,483.289856 142.729309,482.655426 142.928543,481.805115 
	C149.943253,451.869263 168.581314,433.741821 199.240479,426.902557 
	C216.946899,424.466797 232.657333,427.563202 246.992371,437.021393 
	C243.199020,436.593353 239.396606,436.233063 235.613831,435.726074 
	C213.874359,432.812653 194.410889,437.747925 177.915771,452.611847 
	C166.534378,462.867798 158.334671,475.125122 155.013214,490.721130 
	C150.393997,488.962372 145.823334,486.812775 141.085083,484.344055 
z"/>
<path fill="#293D7C" opacity="1.000000" stroke="none" 
	d="
M176.974823,381.646301 
	C168.326736,377.946899 159.946442,372.987579 150.910751,370.031433 
	C125.642883,361.764771 101.424744,365.443512 78.728081,378.914948 
	C68.370079,385.062866 59.590416,393.108124 53.010025,403.734680 
	C50.653164,400.665924 48.332123,397.241272 45.986805,393.459839 
	C58.422813,375.117432 74.946747,362.908112 96.387589,357.754181 
	C123.850876,351.152588 148.453201,357.122406 170.296539,374.824585 
	C172.689789,376.764130 174.736206,379.131653 176.974823,381.646301 
z"/>
<path fill="#1A2B63" opacity="1.000000" stroke="none" 
	d="
M398.138947,355.163635 
	C378.110504,354.937317 360.291382,361.362885 344.848633,373.857117 
	C338.630646,378.887848 333.428284,385.173920 327.105103,390.809387 
	C319.471130,386.796753 312.495758,382.863373 305.391876,378.561279 
	C299.857635,364.232819 294.451935,350.272980 289.433777,336.229736 
	C293.739532,335.928833 295.211395,333.675262 295.181763,329.958008 
	C295.126770,323.059875 295.184113,316.160858 295.645599,309.190552 
	C297.574097,309.103485 299.089874,308.864075 300.523132,309.108551 
	C310.765533,310.855682 318.127930,308.186096 320.414886,296.794250 
	C331.253540,298.830139 341.708344,300.514618 351.990265,302.933746 
	C358.234283,304.402802 359.013947,304.459869 362.073792,298.577576 
	C373.066711,277.444977 375.991913,255.031616 371.731903,231.833298 
	C367.236115,207.351089 355.991058,186.842072 334.111328,172.818283 
	C333.668182,168.398758 333.392609,164.421082 332.953003,160.461624 
	C330.364502,137.147736 325.917877,114.239655 317.882874,91.749069 
	C314.073700,82.190224 311.022766,72.594261 306.287201,63.917755 
	C298.849731,50.290756 290.276489,37.283665 282.184174,24.014067 
	C293.033508,25.788574 303.973053,27.139364 314.713196,29.426640 
	C336.428741,34.051311 356.619141,42.867149 376.640686,53.441292 
	C373.288757,57.126492 369.558960,60.380680 365.468323,63.716232 
	C363.886444,64.296791 362.521179,64.596046 361.481476,65.346451 
	C360.219543,66.257233 358.426361,67.503151 358.359253,68.688751 
	C358.295685,69.813148 360.018524,71.233849 361.226227,72.178505 
	C362.370850,73.073837 363.848755,73.560638 365.210419,74.157959 
	C372.506500,77.358551 377.668518,82.601303 381.080688,89.833298 
	C382.321289,92.462669 384.577911,94.612663 386.370972,96.981377 
	C388.222351,94.319832 390.073730,91.658295 392.137756,88.725380 
	C395.847595,81.912346 400.432404,76.572151 407.880829,74.395355 
	C427.548828,89.241028 443.945435,107.129387 458.107300,127.268456 
	C473.228363,148.771515 484.899231,171.915009 491.903137,197.205734 
	C495.389435,209.794540 497.402374,222.794083 500.015625,235.621277 
	C503.558594,253.011948 502.732758,270.704254 501.680969,288.115448 
	C500.232941,312.086029 494.854309,335.566620 485.482269,357.822815 
	C480.476379,369.710571 474.355225,381.128693 468.115967,392.777893 
	C455.743286,376.386597 440.633362,364.418304 421.017334,359.018463 
	C413.599579,356.976532 405.777008,356.405243 398.138947,355.163635 
M417.319550,195.444611 
	C420.632812,188.687012 426.117523,184.421112 432.920898,181.524719 
	C434.315552,180.930969 435.347412,179.485138 436.546478,178.432053 
	C435.335968,177.232162 434.337128,175.532333 432.879852,174.915390 
	C424.808502,171.498383 419.122833,165.915054 415.805389,157.761414 
	C415.211578,156.301926 413.483337,155.303970 412.278870,154.092911 
	C411.162476,155.427948 409.642822,156.593521 408.998413,158.126923 
	C405.966400,165.341812 401.007477,170.634171 393.292786,174.073135 
	C391.567932,175.427689 389.843109,176.782227 388.118256,178.136765 
	C389.803986,179.530670 391.286652,181.379807 393.211212,182.238419 
	C400.885590,185.662231 405.948792,191.343033 409.126770,199.008560 
	C409.685822,200.357101 411.215332,202.109512 412.374481,202.169403 
	C413.466949,202.225845 414.825012,200.419342 415.756531,199.196442 
	C416.411530,198.336609 416.547546,197.081406 417.319550,195.444611 
z"/>
<path fill="#445EA0" opacity="1.000000" stroke="none" 
	d="
M398.012939,355.511719 
	C405.777008,356.405243 413.599579,356.976532 421.017334,359.018463 
	C440.633362,364.418304 455.743286,376.386597 467.804871,392.950012 
	C461.344635,402.997040 454.900787,413.137207 447.693085,422.701752 
	C442.559601,429.513824 436.740906,435.902344 430.630096,441.867371 
	C413.626404,458.465546 394.894043,472.832184 373.496124,484.042236 
	C372.307922,482.810638 371.023071,481.689453 370.725311,480.348969 
	C366.288208,460.372742 354.773102,445.604523 337.524872,435.090637 
	C334.427704,433.202728 331.050323,431.665314 327.630371,430.449738 
	C324.729431,429.418640 323.827087,428.378113 324.724884,425.051300 
	C331.269623,400.799438 345.067200,381.737579 366.563965,369.062531 
	C375.827667,363.600403 386.682922,360.839478 396.803436,356.821991 
	C397.225433,356.654480 397.528473,356.187317 398.012939,355.511719 
z"/>
<path fill="#FD3745" opacity="1.000000" stroke="none" 
	d="
M282.030396,23.701378 
	C290.276489,37.283665 298.849731,50.290756 306.287201,63.917755 
	C311.022766,72.594261 314.073700,82.190224 317.422485,91.778976 
	C306.723297,92.153687 296.481598,92.123322 285.755585,92.068161 
	C270.128967,92.072845 254.986679,92.102333 239.397217,92.104218 
	C235.252823,92.105492 231.555618,92.134369 227.399567,92.183006 
	C221.259460,92.396729 215.578171,92.590698 209.919281,92.608803 
	C209.941650,92.432930 209.966400,92.079224 209.966400,92.079224 
	C217.251282,71.703987 225.905533,51.927055 238.910995,34.529816 
	C246.519913,24.351439 255.449066,15.160005 263.932770,5.218056 
	C270.013000,11.070578 275.944794,17.229633 282.030396,23.701378 
z"/>
<path fill="#FE9518" opacity="1.000000" stroke="none" 
	d="
M408.176514,74.237503 
	C400.432404,76.572151 395.847595,81.912346 391.773499,88.721626 
	C389.951447,87.636627 388.228912,86.490265 387.540497,84.897064 
	C383.799377,76.239243 377.273773,70.690895 368.815033,66.983139 
	C367.569794,66.437302 366.812317,64.778641 365.829163,63.634865 
	C369.558960,60.380680 373.288757,57.126492 377.008423,53.519196 
	C378.668793,50.429550 380.223541,47.612637 382.049805,44.984390 
	C383.291504,43.197395 384.913696,41.674767 386.365723,40.033920 
	C387.890106,41.586769 390.096497,42.873470 390.823883,44.737347 
	C394.487000,54.123863 400.878723,60.453701 410.225098,64.187943 
	C412.158722,64.960503 413.417480,67.422218 414.987305,69.105438 
	C413.402039,70.499832 411.843597,71.926758 410.214996,73.268509 
	C409.736237,73.662918 409.058655,73.815964 408.176514,74.237503 
z"/>
<path fill="#ADC0EC" opacity="1.000000" stroke="none" 
	d="
M305.520386,378.929962 
	C312.495758,382.863373 319.471130,386.796753 326.765442,390.852112 
	C326.601776,392.631744 326.229462,394.331360 325.618317,395.940216 
	C322.106750,405.185120 318.608490,414.436768 314.909668,423.607025 
	C314.389740,424.895966 312.678864,426.767426 311.714050,426.657593 
	C291.157227,424.317566 273.411255,430.608765 257.776978,443.707397 
	C257.654114,443.810394 257.483185,443.855957 256.963165,444.109283 
	C253.966721,441.873383 250.813141,439.520233 247.325958,437.094238 
	C232.657333,427.563202 216.946899,424.466797 199.646851,426.822021 
	C198.072388,415.122681 193.190826,404.793304 187.738800,394.270355 
	C192.101044,388.092468 197.818817,384.074493 204.515030,381.207092 
	C206.233459,380.471191 208.098221,378.805359 208.777710,377.116791 
	C214.062378,363.984375 219.073471,350.741913 224.629852,337.023315 
	C227.723984,336.436707 230.357376,336.360260 232.949890,336.636475 
	C227.574219,350.753662 222.239441,364.518097 216.724060,378.748535 
	C231.096161,379.526886 241.929474,384.994019 249.772568,396.153015 
	C250.781097,395.379791 251.495575,394.968262 252.039520,394.394897 
	C263.512970,382.301636 277.801941,377.430908 294.180695,378.022766 
	C297.966583,378.159576 301.740784,378.619019 305.520386,378.929962 
z"/>
<path fill="#D9E8FA" opacity="1.000000" stroke="none" 
	d="
M213.011459,308.920532 
	C212.689911,308.990204 212.370438,309.108765 212.046509,309.122498 
	C198.810181,309.684631 198.810135,309.683441 194.112549,296.749084 
	C186.265579,271.499817 181.245209,246.442551 180.017929,220.714157 
	C179.417725,208.131287 179.242722,195.528107 178.961731,182.520355 
	C179.282486,179.093704 179.516785,176.080856 179.751083,173.067993 
	C181.657837,145.651917 186.628784,118.837929 195.737671,92.514435 
	C200.327866,92.279060 204.704239,92.324226 209.523499,92.224304 
	C209.966400,92.079224 209.941650,92.432930 209.862411,92.926270 
	C198.598862,124.910789 194.193008,157.627747 193.153244,190.788513 
	C192.504868,211.466919 194.466751,232.095413 197.978867,252.531860 
	C201.287689,271.785248 205.524277,290.784332 213.011459,308.920532 
z"/>
<path fill="#EEF5FE" opacity="1.000000" stroke="none" 
	d="
M213.447723,309.010925 
	C205.524277,290.784332 201.287689,271.785248 197.978867,252.531860 
	C194.466751,232.095413 192.504868,211.466919 193.153244,190.788513 
	C194.193008,157.627747 198.598862,124.910789 209.840027,93.102142 
	C215.578171,92.590698 221.259460,92.396729 227.449814,92.632339 
	C227.980286,95.204880 228.019379,97.347839 228.020248,99.490814 
	C228.025909,113.553993 228.023209,113.553993 242.466278,112.905411 
	C254.919907,112.963806 266.909180,112.998596 278.897949,112.933716 
	C284.058502,112.905792 285.726868,111.183533 285.884979,106.047607 
	C286.028198,101.396820 286.123474,96.744568 286.239899,92.092957 
	C296.481598,92.123322 306.723297,92.153687 317.425354,92.154129 
	C325.917877,114.239655 330.364502,137.147736 332.953003,160.461624 
	C333.392609,164.421082 333.668182,168.398758 334.055237,173.239456 
	C335.931793,198.770386 335.101166,223.377167 330.859344,247.702942 
	C327.985199,264.185242 323.643524,280.411682 319.958191,296.752533 
	C318.127930,308.186096 310.765533,310.855682 300.523132,309.108551 
	C299.089874,308.864075 297.574097,309.103485 295.168671,309.110840 
	C274.792877,309.157135 255.344925,309.211487 235.441956,309.185608 
	C229.431458,309.166168 223.875961,309.226990 218.320450,309.287781 
	C216.841629,309.225616 215.362793,309.163452 213.447723,309.010925 
M303.118225,160.455963 
	C286.728821,126.177841 241.278961,120.399139 217.461609,150.121857 
	C205.079651,165.573837 202.295044,183.044922 209.992416,201.216888 
	C218.129501,220.426956 233.250671,231.594849 254.220306,232.754318 
	C292.469849,234.869247 318.573761,196.533295 303.118225,160.455963 
z"/>
<path fill="#FD3745" opacity="1.000000" stroke="none" 
	d="
M178.875275,182.934128 
	C179.242722,195.528107 179.417725,208.131287 180.017929,220.714157 
	C181.245209,246.442551 186.265579,271.499817 193.916656,296.421387 
	C184.228394,298.439545 174.555481,300.090271 164.481995,301.408295 
	C163.760574,300.139313 163.548920,299.147247 163.102905,298.274963 
	C151.941254,276.445496 149.233749,253.441452 154.034546,229.573944 
	C157.644928,211.624634 165.073486,195.538742 178.875275,182.934128 
z"/>
<path fill="#B60B2D" opacity="1.000000" stroke="none" 
	d="
M178.961731,182.520355 
	C165.073486,195.538742 157.644928,211.624634 154.034546,229.573944 
	C149.233749,253.441452 151.941254,276.445496 163.102905,298.274963 
	C163.548920,299.147247 163.760574,300.139313 164.115616,301.439392 
	C156.537201,305.703094 155.018036,305.268829 151.397141,297.879578 
	C136.064285,266.589417 136.316742,235.132446 151.367599,203.976547 
	C157.520172,191.240509 166.814941,180.760223 179.459564,173.211685 
	C179.516785,176.080856 179.282486,179.093704 178.961731,182.520355 
z"/>
<path fill="#FCCE0E" opacity="1.000000" stroke="none" 
	d="
M90.023071,147.426407 
	C98.450058,143.844131 103.847107,137.477188 107.273834,129.119446 
	C107.943291,127.486649 109.694435,126.297348 110.946671,124.903473 
	C112.328552,126.337868 114.285721,127.533653 114.996147,129.246536 
	C118.760910,138.323517 124.946075,144.723007 134.174911,148.290024 
	C135.839050,148.933212 137.071732,150.692703 138.503601,151.936829 
	C137.062195,153.333282 135.861389,155.288467 134.138184,156.030533 
	C126.220604,159.439957 119.879395,164.391876 115.784538,172.676880 
	C114.314659,171.576492 113.089874,170.380310 112.524055,168.927475 
	C109.083572,160.093384 102.770767,154.250656 94.188858,150.541885 
	C92.640617,149.872818 91.403717,148.483307 90.023071,147.426407 
z"/>
<path fill="#B50C2E" opacity="1.000000" stroke="none" 
	d="
M218.280975,309.736023 
	C223.875961,309.226990 229.431458,309.166168 235.452560,309.636841 
	C235.930252,316.491882 235.755646,322.824158 236.051971,329.134338 
	C236.161163,331.459778 237.381134,333.733002 237.825851,336.129242 
	C237.381195,336.302216 237.205139,336.376007 236.661896,336.347076 
	C235.534195,336.253082 234.773697,336.261810 233.756287,336.173096 
	C233.329834,336.145050 233.160309,336.214447 232.990784,336.283813 
	C230.357376,336.360260 227.723984,336.436707 224.765808,336.648224 
	C219.401352,335.733124 218.044937,332.298645 218.184097,327.602509 
	C218.356003,321.800995 218.235596,315.990753 218.280975,309.736023 
z"/>
<path fill="#FAAD12" opacity="1.000000" stroke="none" 
	d="
M89.700958,147.508163 
	C91.403717,148.483307 92.640617,149.872818 94.188858,150.541885 
	C102.770767,154.250656 109.083572,160.093384 112.524055,168.927475 
	C113.089874,170.380310 114.314659,171.576492 115.573730,172.952713 
	C115.551605,174.093857 115.425110,175.350067 114.775764,176.212723 
	C113.753128,177.571320 112.368881,179.618500 111.156158,179.605850 
	C109.917358,179.592957 108.172958,177.668427 107.560936,176.200821 
	C103.845100,167.290436 98.282623,160.362854 89.001076,156.698654 
	C86.925941,155.879425 85.368172,153.749725 83.572220,152.223343 
	C85.507759,150.678879 87.443306,149.134399 89.700958,147.508163 
z"/>
<path fill="#FD3846" opacity="1.000000" stroke="none" 
	d="
M320.414917,296.794250 
	C323.643524,280.411682 327.985199,264.185242 330.859344,247.702942 
	C335.101166,223.377167 335.931793,198.770386 334.147034,173.689728 
	C355.991058,186.842072 367.236115,207.351089 371.731903,231.833298 
	C375.991913,255.031616 373.066711,277.444977 362.073792,298.577576 
	C359.013947,304.459869 358.234283,304.402802 351.990265,302.933746 
	C341.708344,300.514618 331.253540,298.830139 320.414917,296.794250 
z"/>
<path fill="#D8E9FB" opacity="1.000000" stroke="none" 
	d="
M232.949890,336.636505 
	C233.160309,336.214447 233.329834,336.145050 233.878204,336.443054 
	C234.505920,337.548279 234.754822,338.286194 234.967316,339.378418 
	C234.467789,340.960205 233.736343,342.155609 233.585648,343.420258 
	C232.681595,351.007324 231.965271,358.616699 231.073502,366.205383 
	C230.604065,370.199860 231.823486,372.980072 236.167999,374.291260 
	C237.603409,374.382629 238.816284,374.221344 240.388031,374.013580 
	C243.736755,372.586121 245.209824,370.544891 244.948502,366.963104 
	C244.655823,362.951599 244.943817,358.877869 245.239853,354.850372 
	C245.430756,352.253143 246.011200,349.673340 246.559402,347.116241 
	C247.333115,343.507202 248.238434,339.926361 249.541168,336.248230 
	C254.966766,336.219788 259.938690,336.276550 264.928925,336.758789 
	C265.346680,341.432617 265.551392,345.710815 266.197906,349.921204 
	C266.907013,354.538696 270.394958,357.381165 274.252289,356.956696 
	C278.245728,356.517303 281.037415,353.263824 280.949310,348.563446 
	C280.872650,344.472626 280.333405,340.390472 280.443604,336.225708 
	C283.607849,336.202332 286.327026,336.257751 289.046204,336.313171 
	C294.451935,350.272980 299.857635,364.232819 305.391876,378.561279 
	C301.740784,378.619019 297.966583,378.159576 294.180695,378.022766 
	C277.801941,377.430908 263.512970,382.301636 252.039520,394.394897 
	C251.495575,394.968262 250.781097,395.379791 249.772568,396.153015 
	C241.929474,384.994019 231.096161,379.526886 216.724060,378.748535 
	C222.239441,364.518097 227.574219,350.753662 232.949890,336.636505 
z"/>
<path fill="#FE3846" opacity="1.000000" stroke="none" 
	d="
M289.433777,336.229736 
	C286.327026,336.257751 283.607849,336.202332 279.985840,336.143188 
	C274.358856,336.204041 269.634766,336.268677 264.910645,336.333313 
	C259.938690,336.276550 254.966766,336.219788 249.083435,336.159393 
	C244.812851,336.113861 241.453659,336.071960 238.094467,336.030060 
	C237.381134,333.733002 236.161163,331.459778 236.051971,329.134338 
	C235.755646,322.824158 235.930252,316.491882 235.907562,309.717102 
	C255.344925,309.211487 274.792877,309.157135 294.717773,309.182495 
	C295.184113,316.160858 295.126770,323.059875 295.181763,329.958008 
	C295.211395,333.675262 293.739532,335.928833 289.433777,336.229736 
z"/>
<path fill="#FCFCFD" opacity="1.000000" stroke="none" 
	d="
M394.014679,174.071426 
	C401.007477,170.634171 405.966400,165.341812 408.998413,158.126923 
	C409.642822,156.593521 411.162476,155.427948 412.278870,154.092911 
	C413.483337,155.303970 415.211578,156.301926 415.805389,157.761414 
	C419.122833,165.915054 424.808502,171.498383 432.879852,174.915390 
	C434.337128,175.532333 435.335968,177.232162 436.546478,178.432068 
	C435.347412,179.485138 434.315552,180.930969 432.920898,181.524719 
	C426.117523,184.421112 420.632812,188.687012 416.765472,195.684875 
	C415.204681,194.700195 413.765289,193.629272 413.264954,192.223999 
	C410.897583,185.574493 406.086121,181.343399 400.144379,178.044632 
	C398.020508,176.865509 396.053345,175.404037 394.014679,174.071426 
z"/>
<path fill="#EC8219" opacity="1.000000" stroke="none" 
	d="
M365.468323,63.716228 
	C366.812317,64.778641 367.569794,66.437302 368.815033,66.983139 
	C377.273773,70.690895 383.799377,76.239243 387.540497,84.897064 
	C388.228912,86.490265 389.951447,87.636627 391.560852,88.993004 
	C390.073730,91.658295 388.222351,94.319832 386.370972,96.981377 
	C384.577911,94.612663 382.321289,92.462669 381.080688,89.833298 
	C377.668518,82.601303 372.506500,77.358551 365.210419,74.157959 
	C363.848755,73.560638 362.370850,73.073837 361.226227,72.178505 
	C360.018524,71.233849 358.295685,69.813148 358.359253,68.688751 
	C358.426361,67.503151 360.219543,66.257233 361.481476,65.346451 
	C362.521179,64.596046 363.886444,64.296791 365.468323,63.716228 
z"/>
<path fill="#D6E6F8" opacity="1.000000" stroke="none" 
	d="
M393.653748,174.072281 
	C396.053345,175.404037 398.020508,176.865509 400.144379,178.044632 
	C406.086121,181.343399 410.897583,185.574493 413.264954,192.223999 
	C413.765289,193.629272 415.204681,194.700195 416.563354,195.963943 
	C416.547546,197.081406 416.411530,198.336609 415.756531,199.196442 
	C414.825012,200.419342 413.466949,202.225845 412.374481,202.169403 
	C411.215332,202.109512 409.685822,200.357101 409.126770,199.008560 
	C405.948792,191.343033 400.885590,185.662231 393.211212,182.238419 
	C391.286652,181.379807 389.803986,179.530670 388.118256,178.136765 
	C389.843109,176.782227 391.567932,175.427689 393.653748,174.072281 
z"/>
<path fill="#EA2B3E" opacity="1.000000" stroke="none" 
	d="
M285.755585,92.068161 
	C286.123474,96.744568 286.028198,101.396820 285.884979,106.047607 
	C285.726868,111.183533 284.058502,112.905792 278.897949,112.933716 
	C266.909180,112.998596 254.919907,112.963806 242.274124,112.577728 
	C241.067368,110.388245 240.136734,108.610489 240.040833,106.788773 
	C239.784119,101.913185 239.885345,97.018761 239.844376,92.131821 
	C254.986679,92.102333 270.128967,92.072845 285.755585,92.068161 
z"/>
<path fill="#BB0C2D" opacity="1.000000" stroke="none" 
	d="
M239.397217,92.104218 
	C239.885345,97.018761 239.784119,101.913185 240.040833,106.788773 
	C240.136734,108.610489 241.067368,110.388245 241.809540,112.513718 
	C228.023209,113.553993 228.025909,113.553993 228.020248,99.490814 
	C228.019379,97.347839 227.980286,95.204880 227.908646,92.612579 
	C231.555618,92.134369 235.252823,92.105492 239.397217,92.104218 
z"/>
<path fill="#4560A1" opacity="1.000000" stroke="none" 
	d="
M303.304993,160.785919 
	C318.573761,196.533295 292.469849,234.869247 254.220306,232.754318 
	C233.250671,231.594849 218.129501,220.426956 209.992416,201.216888 
	C202.295044,183.044922 205.079651,165.573837 217.461609,150.121857 
	C241.278961,120.399139 286.728821,126.177841 303.304993,160.785919 
M261.829712,214.093124 
	C278.923584,211.364212 289.706848,197.913712 289.651886,181.549011 
	C289.593994,164.295654 276.970062,151.347839 259.410980,149.241165 
	C244.213058,148.128250 230.524597,157.374847 225.880325,171.891220 
	C221.228210,186.432098 226.832886,202.213074 239.849197,209.828430 
	C246.281952,213.592010 253.228745,216.367630 261.829712,214.093124 
z"/>
<path fill="#AEC0EC" opacity="1.000000" stroke="none" 
	d="
M237.825851,336.129242 
	C241.453659,336.071960 244.812851,336.113861 248.629791,336.244629 
	C248.238434,339.926361 247.333115,343.507202 246.559402,347.116241 
	C246.011200,349.673340 245.430756,352.253143 245.239853,354.850372 
	C244.943817,358.877869 244.655823,362.951599 244.948502,366.963104 
	C245.209824,370.544891 243.736755,372.586121 240.194641,373.745819 
	C238.410110,373.695892 237.177780,373.867218 235.945465,374.038574 
	C231.823486,372.980072 230.604065,370.199860 231.073502,366.205383 
	C231.965271,358.616699 232.681595,351.007324 233.585648,343.420258 
	C233.736343,342.155609 234.467789,340.960205 235.232544,339.259918 
	C236.032471,338.007965 236.530777,337.228882 237.029083,336.449799 
	C237.205139,336.376007 237.381195,336.302216 237.825851,336.129242 
z"/>
<path fill="#B6BAE2" opacity="1.000000" stroke="none" 
	d="
M236.661896,336.347076 
	C236.530777,337.228882 236.032471,338.007965 235.268951,338.905579 
	C234.754822,338.286194 234.505920,337.548279 234.135101,336.540466 
	C234.773697,336.261810 235.534195,336.253082 236.661896,336.347076 
z"/>
<path fill="#B0C0EC" opacity="1.000000" stroke="none" 
	d="
M264.928925,336.758789 
	C269.634766,336.268677 274.358856,336.204041 279.540771,336.221954 
	C280.333405,340.390472 280.872650,344.472626 280.949310,348.563446 
	C281.037415,353.263824 278.245728,356.517303 274.252289,356.956696 
	C270.394958,357.381165 266.907013,354.538696 266.197906,349.921204 
	C265.551392,345.710815 265.346680,341.432617 264.928925,336.758789 
z"/>
<path fill="#AFC2ED" opacity="1.000000" stroke="none" 
	d="
M236.167999,374.291260 
	C237.177780,373.867218 238.410110,373.695892 239.835800,373.792297 
	C238.816284,374.221344 237.603409,374.382629 236.167999,374.291260 
z"/>
<path fill="#69CCFE" opacity="1.000000" stroke="none" 
	d="
M260.079803,149.657471 
	C276.970062,151.347839 289.593994,164.295654 289.651886,181.549011 
	C289.706848,197.913712 278.923584,211.364212 261.203613,213.802246 
	C246.568192,209.740173 237.362030,199.074615 236.251343,183.223816 
	C235.543472,173.121567 240.436417,159.107193 254.562225,152.702454 
	C256.469513,151.837662 258.243896,150.679672 260.079803,149.657471 
z"/>
<path fill="#52BAEE" opacity="1.000000" stroke="none" 
	d="
M259.745392,149.449310 
	C258.243896,150.679672 256.469513,151.837662 254.562225,152.702454 
	C240.436417,159.107193 235.543472,173.121567 236.251343,183.223816 
	C237.362030,199.074615 246.568192,209.740173 260.802277,213.800232 
	C253.228745,216.367630 246.281952,213.592010 239.849197,209.828430 
	C226.832886,202.213074 221.228210,186.432098 225.880325,171.891220 
	C230.524597,157.374847 244.213058,148.128250 259.745392,149.449310 
z"/>
</svg>