<svg version="1.1" id="Layer_1" xmlns="http://www.w3.org/2000/svg" xmlns:xlink="http://www.w3.org/1999/xlink" x="0px" y="0px"
	 width="100%" viewBox="0 0 480 496" enable-background="new 0 0 480 496" xml:space="preserve">
	 
<path fill="#000000" opacity="1.000000" stroke="#000000" stroke-width="8" 
	d="
M94.591530,354.720581 
	C100.128799,349.136139 105.326500,343.724518 110.736961,338.534729 
	C115.440742,334.022827 116.343269,328.873871 113.843536,323.076965 
	C110.019623,314.209198 105.976791,305.443604 102.566048,296.391113 
	C100.871643,291.893982 96.918526,290.203796 92.137283,290.089447 
	C83.818024,289.890503 75.458374,290.868958 67.183472,289.581146 
	C58.005749,288.152863 51.895905,281.385986 51.754723,272.127411 
	C51.541294,258.130768 51.546974,244.126511 51.740780,230.129395 
	C51.882713,219.878693 58.887257,213.005020 69.177650,212.746185 
	C76.506599,212.561859 83.844070,212.746078 91.176308,212.653168 
	C97.782944,212.569473 100.833252,210.355789 102.979866,204.005554 
	C105.864227,195.472931 109.072159,187.101501 113.251640,179.089127 
	C116.762093,172.359314 116.255821,169.697739 111.024010,164.400101 
	C106.106644,159.420853 100.954208,154.672745 96.065361,149.666550 
	C88.146843,141.557953 87.962318,131.637192 95.801239,123.438454 
	C104.665840,114.166946 113.651283,104.998810 122.871040,96.082336 
	C132.711777,86.565315 142.371857,86.764832 152.270050,96.260750 
	C157.440308,101.220871 162.664032,106.137505 167.605026,111.320282 
	C171.244095,115.137413 175.286285,115.606667 179.881012,113.851891 
	C186.880371,111.178780 193.819687,108.346283 200.841583,105.735001 
	C206.682877,103.562759 207.212906,98.550629 207.575821,93.512703 
	C208.186310,85.038414 206.425003,76.578049 207.565735,68.059395 
	C208.860062,58.393784 214.429504,52.832123 224.026398,52.741886 
	C238.025085,52.610260 252.026703,52.606827 266.025482,52.730324 
	C276.666443,52.824192 283.164490,59.349739 283.317902,69.934647 
	C283.433807,77.932938 283.296082,85.934593 283.361420,93.934021 
	C283.423859,101.575310 285.426483,104.193298 292.650909,106.806137 
	C298.601685,108.958344 304.542297,111.149818 310.412415,113.510445 
	C315.589539,115.592377 319.866089,115.236107 323.865509,110.740364 
	C328.508606,105.521080 333.623779,100.706810 338.696625,95.887955 
	C348.283752,86.780914 358.239197,86.913307 367.698669,96.225563 
	C376.605988,104.994225 385.456940,113.820763 394.275970,122.678322 
	C403.169373,131.610596 403.333710,140.239319 394.760345,149.280472 
	C389.716217,154.599838 384.608704,159.864487 379.382324,165.003845 
	C375.768524,168.557465 374.681793,172.324127 376.726776,177.163101 
	C380.808960,186.822601 384.585602,196.610748 388.587006,206.305084 
	C390.365540,210.613937 393.795074,212.643402 398.424042,212.659271 
	C405.757263,212.684433 413.091339,212.626511 420.423584,212.720627 
	C433.103760,212.883377 439.383453,219.280411 439.392639,231.949921 
	C439.401794,244.605499 439.423676,257.261261 439.372253,269.916687 
	C439.319458,282.903259 432.470367,289.867401 419.357544,290.165039 
	C412.527679,290.320099 405.688171,290.336792 398.859406,290.163727 
	C393.273254,290.022217 389.712067,292.580597 387.636017,297.570099 
	C383.990143,306.332611 380.404083,315.120605 376.680664,323.850006 
	C374.466217,329.041656 375.264252,333.610657 379.115997,337.634155 
	C384.185120,342.929352 389.291626,348.189789 394.443176,353.404846 
	C402.850372,361.915710 403.147461,371.085114 394.809998,379.735046 
	C387.410553,387.411835 379.666779,394.756592 372.081604,402.254608 
	C370.305084,404.010742 368.614349,405.857727 366.783295,407.554016 
	C358.360657,415.356689 348.317871,415.427704 339.977112,407.530457 
	C334.654938,402.491333 329.467316,397.289856 324.501770,391.900940 
	C320.752594,387.832184 317.126801,387.678802 311.657928,388.834717 
	C298.688660,391.575928 293.942963,402.304688 287.162750,411.224487 
	C286.087280,412.639313 286.355103,414.414948 286.352020,416.070801 
	C286.336182,424.570740 286.230957,433.072479 286.366943,441.570221 
	C286.546295,452.776337 278.079041,462.108917 266.331268,461.519257 
	C253.030853,460.851624 239.654953,460.903595 226.343628,461.436188 
	C209.778732,462.098877 204.138504,452.001404 203.962326,439.094116 
	C203.862274,431.762848 203.872574,424.426941 204.019287,417.096832 
	C204.092697,413.428772 203.414627,410.178070 200.777405,407.470795 
	C200.089951,406.765076 199.437927,405.912170 199.091721,405.004089 
	C195.276962,394.998108 186.375977,391.640808 177.456192,388.196686 
	C173.539307,386.684265 170.329468,387.389191 167.442657,390.309540 
	C161.936127,395.880096 156.432587,401.454102 150.878098,406.976715 
	C142.347168,415.458771 132.239777,415.533875 123.577713,407.112793 
	C114.376701,398.167725 105.210640,389.185394 96.125175,380.123199 
	C88.458786,372.476440 87.920341,363.878387 94.591530,354.720581 
M169.751343,380.948334 
	C180.514282,379.301880 188.839554,385.565399 197.778625,389.727661 
	C198.965454,390.280304 199.876495,391.915588 200.429108,393.250702 
	C202.307755,397.789764 205.112183,401.703674 208.305618,405.341309 
	C210.526886,407.871490 211.430939,410.631775 211.376923,414.002960 
	C211.232742,423.000397 211.203476,432.004242 211.373917,441.000854 
	C211.544556,450.007690 215.832047,454.086426 224.735077,454.081329 
	C239.067886,454.073151 253.401184,454.095367 267.733246,453.978638 
	C273.741852,453.929718 276.873596,451.337860 278.652649,445.644653 
	C279.670471,442.387512 279.626404,439.100922 279.400757,435.751831 
	C278.862549,427.763489 278.818268,419.770477 279.594635,411.789734 
	C279.855042,409.112823 292.966919,389.393311 295.308929,388.116669 
	C295.600647,387.957672 295.908966,387.826355 296.217194,387.700928 
	C301.153809,385.691620 306.072784,383.637299 311.033722,381.689880 
	C317.865509,379.007996 323.683807,380.605286 328.763031,385.821442 
	C334.225739,391.431366 339.673584,397.077606 345.456177,402.347870 
	C350.914581,407.322693 356.205811,407.281647 361.460388,402.264252 
	C371.098267,393.061462 380.591705,383.701416 389.949829,374.214050 
	C395.003326,369.090790 394.996735,364.565948 390.145660,359.318787 
	C385.623047,354.426941 380.792053,349.820984 376.118042,345.068268 
	C367.824982,336.635559 366.423462,328.732910 371.175140,317.781342 
	C374.422821,310.296173 377.803528,302.859619 380.758392,295.258942 
	C384.085510,286.700562 390.283264,282.790497 399.225861,282.738434 
	C406.225525,282.697662 413.229248,282.820648 420.224091,282.622284 
	C428.010498,282.401459 431.899170,278.502319 431.969849,270.791565 
	C432.090485,257.626740 432.125183,244.458771 431.974518,231.294662 
	C431.883453,223.337143 428.497559,220.229980 420.521240,220.180634 
	C413.355225,220.136292 406.181732,220.327484 399.024536,220.063202 
	C388.887939,219.688889 384.147461,216.166306 380.883667,206.647095 
	C378.069641,198.439667 374.803223,190.442596 371.161804,182.568954 
	C366.515930,172.523575 367.723206,166.406052 375.469696,158.646439 
	C380.296722,153.811218 385.241089,149.089722 389.970673,144.161606 
	C394.553772,139.386139 395.208893,134.614014 391.158936,130.400131 
	C381.116882,119.951614 370.860535,109.696579 360.385956,99.682106 
	C355.980225,95.469872 350.055084,95.958603 345.499329,100.016449 
	C340.021759,104.895393 334.741302,109.976219 329.817413,115.424110 
	C323.454987,122.463593 317.502502,123.938362 308.740845,120.614929 
	C301.734406,117.957291 294.793823,115.124687 287.771637,112.510460 
	C280.964142,109.976173 277.447998,105.168274 276.594635,97.981590 
	C275.508423,88.833801 276.386261,79.664734 275.899048,70.518555 
	C275.516266,63.332870 272.450836,60.292114 265.243591,60.254227 
	C252.744171,60.188526 240.244232,60.216923 227.744507,60.215809 
	C217.469467,60.214897 214.534882,63.126423 214.400192,73.640884 
	C214.302017,81.306206 214.466293,88.976410 214.276733,96.638580 
	C214.096481,103.925011 211.031815,109.675156 203.877441,112.175064 
	C196.321198,114.815399 188.952469,117.887970 181.525726,120.839462 
	C174.481918,123.638786 168.235611,122.399406 162.777557,116.887993 
	C157.034821,111.089096 151.206360,105.356682 145.136368,99.905907 
	C139.985092,95.280151 134.551941,95.209267 129.933533,99.730438 
	C120.051781,109.404167 110.280838,119.199020 100.715141,129.184372 
	C95.765923,134.350723 96.048668,138.873581 101.068886,144.090378 
	C105.459198,148.652603 110.007179,153.064026 114.516838,157.510300 
	C123.376915,166.245789 124.667831,172.285629 119.237076,183.422226 
	C115.502022,191.081512 112.366348,198.940933 109.518845,206.951859 
	C106.270668,216.089996 100.851669,219.952194 91.138794,220.139252 
	C84.307838,220.270828 77.472290,220.146408 70.640106,220.236130 
	C62.668140,220.340790 59.307095,223.588821 59.238926,231.444809 
	C59.129021,244.110306 59.134262,256.777161 59.158482,269.443298 
	C59.175522,278.353668 63.371323,282.535431 72.339134,282.626709 
	C79.171600,282.696228 86.012383,282.468475 92.836266,282.724579 
	C100.855942,283.025543 106.912384,286.597137 109.730644,294.457825 
	C112.715378,302.782837 116.415596,310.792633 120.054604,318.835632 
	C124.475281,328.606262 122.951614,336.697601 115.370529,344.344482 
	C110.442688,349.315125 105.396935,354.179657 100.670380,359.335907 
	C96.206848,364.205200 95.914886,369.007568 99.965492,373.146759 
	C109.754997,383.150269 119.665611,393.041229 129.738174,402.759125 
	C134.507172,407.360168 140.082748,407.130920 144.862152,402.512329 
	C150.253708,397.302246 155.496216,391.936188 160.742340,386.578033 
	C163.114685,384.155029 165.698547,382.131592 169.751343,380.948334 
z"/>
<path fill="#000000" opacity="1.000000" stroke="none" 
	d="
M144.088928,236.460098 
	C149.860825,199.368652 168.644806,172.118881 202.250443,155.762589 
	C239.465134,137.649765 285.480499,145.419708 315.333893,174.316025 
	C339.013550,197.236557 349.686340,225.340912 347.032440,257.800873 
	C343.826904,297.008057 323.799805,325.441406 288.114655,342.378601 
	C284.302582,344.187927 283.016296,346.233917 283.113190,350.272430 
	C283.356903,360.430176 283.233337,370.597748 283.186981,380.761078 
	C283.156708,387.397064 281.200897,389.360107 274.498901,389.374603 
	C255.004654,389.416809 235.510193,389.417542 216.015945,389.376740 
	C209.134674,389.362305 207.691071,387.803467 207.669403,380.689453 
	C207.637909,370.359253 207.526215,360.027130 207.691681,349.699768 
	C207.747040,346.244690 206.661270,344.300476 203.393036,342.819763 
	C169.420670,327.428192 149.949066,300.913086 144.149429,264.312164 
	C142.716461,255.268860 143.255249,246.045120 144.088928,236.460098 
M182.104233,177.601578 
	C157.038086,201.316650 146.642731,230.619019 151.620392,264.440552 
	C156.676651,298.796234 175.816406,323.357147 208.156815,336.859192 
	C213.264359,338.991608 215.375183,341.780640 215.294342,347.262390 
	C215.139511,357.760162 213.693359,356.561218 224.866806,356.885864 
	C229.414383,357.017975 230.922577,355.655334 230.868164,350.985504 
	C230.646896,331.997345 230.764969,313.004639 230.846695,294.013977 
	C230.864899,289.783936 229.883652,285.794006 228.849854,281.750824 
	C227.945755,278.214874 226.496231,276.747284 222.520294,277.874084 
	C215.297195,279.921143 207.975510,279.623566 200.937195,276.859100 
	C193.427780,273.909607 189.343491,266.536835 190.940460,259.300354 
	C192.436920,252.519287 199.247955,246.965790 206.305222,247.321609 
	C213.283966,247.673492 218.937775,251.118134 223.796890,255.997574 
	C226.744476,258.957458 228.647324,262.683929 231.643875,266.905762 
	C240.617859,257.953857 250.039886,260.416992 259.280670,266.579590 
	C260.950470,264.005310 262.132690,262.013641 263.478088,260.139099 
	C268.208405,253.548126 274.208191,248.756363 282.435333,247.404617 
	C289.655548,246.218292 297.118866,250.750931 299.414337,257.553589 
	C301.833374,264.722473 298.856598,272.127655 291.933350,275.696381 
	C285.994934,278.757477 279.643372,279.724640 273.022247,278.795624 
	C262.174927,277.273621 262.141479,277.258789 260.018768,288.050415 
	C259.604492,290.156616 259.400024,292.337952 259.394592,294.485352 
	C259.347321,313.143005 259.540009,331.803467 259.254761,350.456879 
	C259.176849,355.553284 260.684479,357.085144 265.755615,356.897034 
	C277.591400,356.457825 275.692627,357.613922 275.580994,346.996887 
	C275.525421,341.711426 277.265564,338.907837 282.321533,336.961517 
	C294.266083,332.363495 304.713501,325.238800 313.739807,316.122375 
	C351.334503,278.152344 348.730194,209.388992 304.728210,174.424072 
	C268.622437,145.733658 215.811829,146.522552 182.104233,177.601578 
M251.982239,341.494507 
	C251.985703,326.669067 251.978256,311.843597 251.998520,297.018158 
	C252.005600,291.836243 252.566071,286.733917 254.099136,281.744263 
	C256.711945,273.240479 256.517151,273.253937 248.524139,269.332520 
	C244.631180,267.422607 241.923233,269.454712 238.741318,270.855133 
	C235.007553,272.498474 233.872833,274.671082 235.388107,278.648529 
	C237.530533,284.272247 238.384476,290.144470 238.327545,296.248352 
	C238.155151,314.736786 238.265442,333.228119 238.320602,351.718109 
	C238.326645,353.742645 237.673859,356.095825 240.917007,356.760956 
	C249.600037,358.541687 251.935349,356.764160 251.952881,347.988495 
	C251.956543,346.156158 251.970352,344.323853 251.982239,341.494507 
M265.586884,382.135162 
	C275.683472,382.094208 275.684021,382.094208 275.688080,371.814423 
	C275.688599,370.484253 275.626038,369.151672 275.686554,367.824463 
	C275.802673,365.277313 274.582336,364.233734 272.091278,364.240082 
	C254.300110,364.285492 236.508865,364.290985 218.717636,364.309143 
	C216.901794,364.311005 215.224701,364.717072 215.201019,366.908112 
	C215.147781,371.830780 214.738251,376.781921 215.584290,382.188812 
	C232.169266,381.213318 248.402878,383.309937 265.586884,382.135162 
M292.620392,263.931549 
	C292.721680,256.660278 288.384155,253.258514 281.471222,255.266891 
	C277.371429,256.457977 273.932892,258.781189 271.361145,262.158356 
	C269.726196,264.305359 266.495148,266.326324 267.847504,269.286652 
	C269.029510,271.874146 272.634155,271.453674 275.096832,271.412994 
	C281.598236,271.305481 288.694611,272.114960 292.620392,263.931549 
M198.982681,266.201508 
	C204.372467,271.918427 215.588593,273.404755 223.759415,269.123993 
	C220.753387,262.789093 216.542572,257.691284 209.746063,255.411331 
	C202.370331,252.937027 195.975372,257.921631 198.982681,266.201508 
z"/>
<path fill="#000000" opacity="1.000000" stroke="none" 
	d="
M269.990814,410.216614 
	C269.968048,418.017639 270.033600,425.349213 269.887878,432.676544 
	C269.732391,440.492950 265.830963,444.226135 258.047028,444.232300 
	C249.551102,444.239044 241.054840,444.246460 232.559311,444.178375 
	C224.699478,444.115356 220.825027,440.339630 220.744598,432.561401 
	C220.660217,424.399597 220.651245,416.234711 220.775803,408.073730 
	C220.887299,400.768555 223.945160,397.768768 231.171234,397.718689 
	C239.999924,397.657532 248.829437,397.721588 257.658539,397.702728 
	C267.251648,397.682220 269.727997,400.086121 269.990814,410.216614 
M228.335541,433.862427 
	C228.780930,436.849457 231.074249,436.781799 233.263947,436.794586 
	C238.746918,436.826660 244.230133,436.814392 249.713257,436.822937 
	C263.644135,436.844666 263.561951,436.850372 262.720764,423.085175 
	C262.534576,420.038452 261.264496,418.980194 258.436523,419.001221 
	C252.954010,419.041962 247.470718,418.961426 241.987854,418.974518 
	C228.042847,419.007843 228.042877,419.017426 228.335541,433.862427 
M256.653381,404.453430 
	C249.002655,405.149567 241.355148,404.734497 233.703186,404.447388 
	C231.206985,404.353729 228.346603,404.155548 228.301315,407.893585 
	C228.254959,411.719360 231.289047,411.384949 233.674026,411.380280 
	C241.663956,411.364502 249.654648,411.204010 257.642426,410.997772 
	C259.622467,410.946625 262.464996,411.807068 262.504242,408.378235 
	C262.542114,405.069550 260.268372,404.254181 256.653381,404.453430 
z"/>
</svg>